<?xml version="1.0" encoding="UTF-8"?>
<!DOCTYPE svg PUBLIC "-//W3C//DTD SVG 1.1//EN" "http://www.w3.org/Graphics/SVG/1.1/DTD/svg11.dtd">
<svg xmlns="http://www.w3.org/2000/svg" version="1.1" width="1080px" height="1080px" style="shape-rendering:geometricPrecision; text-rendering:geometricPrecision; image-rendering:optimizeQuality; fill-rule:evenodd; clip-rule:evenodd" xmlns:xlink="http://www.w3.org/1999/xlink">
<g><path style="opacity:1" fill="#a259ff" d="M 244.5,-0.5 C 441.167,-0.5 637.833,-0.5 834.5,-0.5C 928.36,9.92844 999.193,55.5951 1047,136.5C 1065.62,170.993 1076.45,207.66 1079.5,246.5C 1079.5,442.167 1079.5,637.833 1079.5,833.5C 1067.95,936.851 1015.61,1011.35 922.5,1057C 894.25,1069.23 864.916,1076.73 834.5,1079.5C 637.5,1079.5 440.5,1079.5 243.5,1079.5C 159.175,1070.44 92.6751,1031.44 44,962.5C 18.6946,923.415 3.86126,880.748 -0.5,834.5C -0.5,637.5 -0.5,440.5 -0.5,243.5C 8.56946,159.161 47.5695,92.6609 116.5,44C 155.581,18.6958 198.248,3.86247 244.5,-0.5 Z"/></g>
<g><path style="opacity:1" fill="#fefeff" d="M 402.5,150.5 C 493.167,150.333 583.834,150.5 674.5,151C 737.277,160.306 779.443,194.806 801,254.5C 817.814,320.389 800.314,375.222 748.5,419C 792.172,453.872 811.672,499.372 807,555.5C 795.228,623.937 755.728,666.77 688.5,684C 645.496,692.114 606.163,683.614 570.5,658.5C 569.947,703.85 569.114,749.184 568,794.5C 558.997,853.032 527.164,893.532 472.5,916C 421.699,933.068 374.366,926.402 330.5,896C 285.664,859.534 266.164,812.367 272,754.5C 278.672,714.525 297.838,682.025 329.5,657C 279.526,614.746 261.693,561.58 276,497.5C 285.727,465.618 303.561,439.285 329.5,418.5C 283.444,380.192 264.611,331.192 273,271.5C 290.311,203.352 333.477,163.019 402.5,150.5 Z"/></g>
<g><path style="opacity:1" fill="#a259ff" d="M 409.5,210.5 C 442.833,210.5 476.167,210.5 509.5,210.5C 509.5,269.833 509.5,329.167 509.5,388.5C 473.465,388.961 437.465,388.461 401.5,387C 351.699,371.603 328.532,337.769 332,285.5C 341.327,243.339 367.16,218.339 409.5,210.5 Z"/></g>
<g><path style="opacity:1" fill="#a259ff" d="M 569.5,210.5 C 602.502,210.333 635.502,210.5 668.5,211C 706.467,216.968 731.633,238.135 744,274.5C 753.82,319.407 739.32,353.907 700.5,378C 690.342,382.942 679.675,386.275 668.5,388C 635.502,388.5 602.502,388.667 569.5,388.5C 569.5,329.167 569.5,269.833 569.5,210.5 Z"/></g>
<g><path style="opacity:1" fill="#a259ff" d="M 411.5,449.5 C 443.833,449.5 476.167,449.5 508.5,449.5C 508.5,508.5 508.5,567.5 508.5,626.5C 474.165,626.667 439.832,626.5 405.5,626C 358.238,614.311 333.572,584.144 331.5,535.5C 333.903,496.266 353.237,469.1 389.5,454C 396.66,451.535 403.993,450.035 411.5,449.5 Z"/></g>
<g><path style="opacity:1" fill="#bf8dff" d="M 411.5,449.5 C 443.996,448.502 476.662,448.168 509.5,448.5C 509.832,508.002 509.499,567.336 508.5,626.5C 508.5,567.5 508.5,508.5 508.5,449.5C 476.167,449.5 443.833,449.5 411.5,449.5 Z"/></g>
<g><path style="opacity:1" fill="#a259ff" d="M 648.5,448.5 C 694.128,447.374 725.628,467.708 743,509.5C 753.434,547.946 743.934,580.446 714.5,607C 685.786,628.292 654.786,632.292 621.5,619C 584.773,599.731 567.607,569.231 570,527.5C 575.937,489.56 597.104,464.393 633.5,452C 638.596,450.64 643.596,449.474 648.5,448.5 Z"/></g>
<g><path style="opacity:1" fill="#a259ff" d="M 405.5,687.5 C 440.167,687.5 474.833,687.5 509.5,687.5C 509.667,718.835 509.5,750.168 509,781.5C 503.868,823.626 481.035,850.792 440.5,863C 397.749,870.365 364.916,855.865 342,819.5C 322.076,777.309 328.909,740.142 362.5,708C 375.364,697.9 389.697,691.066 405.5,687.5 Z"/></g>
</svg>
