<?xml version="1.0" encoding="UTF-8" standalone="no" ?>
<!DOCTYPE svg PUBLIC "-//W3C//DTD SVG 1.1//EN" "http://www.w3.org/Graphics/SVG/1.1/DTD/svg11.dtd">
<svg xmlns="http://www.w3.org/2000/svg" xmlns:xlink="http://www.w3.org/1999/xlink" version="1.1" width="1080" height="1080" viewBox="0 0 1080 1080" xml:space="preserve">
<desc>Created with Fabric.js 5.2.4</desc>
<defs>
</defs>
<g transform="matrix(1 0 0 1 540 540)" id="5105dae9-8627-4a65-ad90-3b9aafd7eb54"  >
<rect style="stroke: none; stroke-width: 1; stroke-dasharray: none; stroke-linecap: butt; stroke-dashoffset: 0; stroke-linejoin: miter; stroke-miterlimit: 4; fill: rgb(255,255,255); fill-rule: nonzero; opacity: 1; visibility: hidden;" vector-effect="non-scaling-stroke"  x="-540" y="-540" rx="0" ry="0" width="1080" height="1080" />
</g>
<g transform="matrix(1 0 0 1 540 540)" id="7130e760-7979-4a2d-871e-1b7f783c3efa"  >
</g>
<g transform="matrix(0.97 0 0 0.97 540 540)"  >
<g style="" vector-effect="non-scaling-stroke"   >
		<g transform="matrix(33.33 0 0 33.33 -0.02 -0.02)"  >
<path style="stroke: none; stroke-width: 1; stroke-dasharray: none; stroke-linecap: butt; stroke-dashoffset: 0; stroke-linejoin: miter; stroke-miterlimit: 4; fill: rgb(15,15,15); fill-rule: evenodd; opacity: 1;" vector-effect="non-scaling-stroke"  transform=" translate(-12, -12)" d="M 12 18 C 15.3137 18 18 15.3137 18 12 C 18 8.68629 15.3137 6 12 6 C 8.68629 6 6 8.68629 6 12 C 6 15.3137 8.68629 18 12 18 Z M 12 16 C 14.2091 16 16 14.2091 16 12 C 16 9.79086 14.2091 8 12 8 C 9.79086 8 8 9.79086 8 12 C 8 14.2091 9.79086 16 12 16 Z" stroke-linecap="round" />
</g>
		<g transform="matrix(33.33 0 0 33.33 200 -200)"  >
<path style="stroke: none; stroke-width: 1; stroke-dasharray: none; stroke-linecap: butt; stroke-dashoffset: 0; stroke-linejoin: miter; stroke-miterlimit: 4; fill: rgb(15,15,15); fill-rule: nonzero; opacity: 1;" vector-effect="non-scaling-stroke"  transform=" translate(-18, -6)" d="M 18 5 C 17.4477 5 17 5.44772 17 6 C 17 6.55228 17.4477 7 18 7 C 18.5523 7 19 6.55228 19 6 C 19 5.44772 18.5523 5 18 5 Z" stroke-linecap="round" />
</g>
		<g transform="matrix(33.33 0 0 33.33 -0.04 -0.04)"  >
<path style="stroke: none; stroke-width: 1; stroke-dasharray: none; stroke-linecap: butt; stroke-dashoffset: 0; stroke-linejoin: miter; stroke-miterlimit: 4; fill: rgb(15,15,15); fill-rule: evenodd; opacity: 1;" vector-effect="non-scaling-stroke"  transform=" translate(-12, -12)" d="M 1.65396 4.27606 C 1 5.55953 1 7.23969 1 10.6 L 1 13.4 C 1 16.7603 1 18.4405 1.65396 19.7239 C 2.2292 20.8529 3.14708 21.7708 4.27606 22.346 C 5.55953 23 7.23969 23 10.6 23 L 13.4 23 C 16.7603 23 18.4405 23 19.7239 22.346 C 20.8529 21.7708 21.7708 20.8529 22.346 19.7239 C 23 18.4405 23 16.7603 23 13.4 L 23 10.6 C 23 7.23969 23 5.55953 22.346 4.27606 C 21.7708 3.14708 20.8529 2.2292 19.7239 1.65396 C 18.4405 1 16.7603 1 13.4 1 L 10.6 1 C 7.23969 1 5.55953 1 4.27606 1.65396 C 3.14708 2.2292 2.2292 3.14708 1.65396 4.27606 Z M 13.4 3 L 10.6 3 C 8.88684 3 7.72225 3.00156 6.82208 3.0751 C 5.94524 3.14674 5.49684 3.27659 5.18404 3.43597 C 4.43139 3.81947 3.81947 4.43139 3.43597 5.18404 C 3.27659 5.49684 3.14674 5.94524 3.0751 6.82208 C 3.00156 7.72225 3 8.88684 3 10.6 L 3 13.4 C 3 15.1132 3.00156 16.2777 3.0751 17.1779 C 3.14674 18.0548 3.27659 18.5032 3.43597 18.816 C 3.81947 19.5686 4.43139 20.1805 5.18404 20.564 C 5.49684 20.7234 5.94524 20.8533 6.82208 20.9249 C 7.72225 20.9984 8.88684 21 10.6 21 L 13.4 21 C 15.1132 21 16.2777 20.9984 17.1779 20.9249 C 18.0548 20.8533 18.5032 20.7234 18.816 20.564 C 19.5686 20.1805 20.1805 19.5686 20.564 18.816 C 20.7234 18.5032 20.8533 18.0548 20.9249 17.1779 C 20.9984 16.2777 21 15.1132 21 13.4 L 21 10.6 C 21 8.88684 20.9984 7.72225 20.9249 6.82208 C 20.8533 5.94524 20.7234 5.49684 20.564 5.18404 C 20.1805 4.43139 19.5686 3.81947 18.816 3.43597 C 18.5032 3.27659 18.0548 3.14674 17.1779 3.0751 C 16.2777 3.00156 15.1132 3 13.4 3 Z" stroke-linecap="round" />
</g>
</g>
</g>
<g transform="matrix(10.92 0 0 10.92 539.9 539.9)" id="2b6b9699-883f-4bcb-9f6f-62726f478f4b"  >
<rect style="stroke: rgb(0,0,0); stroke-width: 0; stroke-dasharray: none; stroke-linecap: butt; stroke-dashoffset: 0; stroke-linejoin: miter; stroke-miterlimit: 4; fill: rgb(193,53,132); fill-rule: nonzero; opacity: 1;" vector-effect="non-scaling-stroke"  x="-33.085" y="-33.085" rx="0" ry="0" width="66.17" height="66.17" />
</g>
<g transform="matrix(0 0 0 0 0 0)"  >
<g style=""   >
</g>
</g>
<g transform="matrix(45.01 0 0 45.01 539.97 539.97)"  >
<path style="stroke: rgb(0,0,0); stroke-width: 0; stroke-dasharray: none; stroke-linecap: butt; stroke-dashoffset: 0; stroke-linejoin: miter; stroke-miterlimit: 4; fill: rgb(193,53,132); fill-rule: nonzero; opacity: 1;" vector-effect="non-scaling-stroke"  transform=" translate(-12, -12)" d="M 19 0 L 5 0 C 2.239 0 0 2.239 0 5 L 0 19 C 0 21.761 2.239 24 5 24 L 19 24 C 21.762 24 24 21.761 24 19 L 24 5 C 24 2.239 21.762 0 19 0 z M 8 19 L 5 19 L 5 8 L 8 8 L 8 19 z M 6.5 6.731999999999999 C 5.534 6.731999999999999 4.75 5.941999999999999 4.75 4.967999999999999 C 4.75 3.993999999999999 5.534 3.203999999999999 6.5 3.203999999999999 C 7.466 3.203999999999999 8.25 3.993999999999999 8.25 4.967999999999999 C 8.25 5.941999999999999 7.467 6.731999999999999 6.5 6.731999999999999 z M 20 19 L 17 19 L 17 13.396 C 17 10.028 13 10.283000000000001 13 13.396 L 13 19 L 10 19 L 10 8 L 13 8 L 13 9.765 C 14.396 7.179 20 6.988 20 12.241 L 20 19 z" stroke-linecap="round" />
</g>
<g transform="matrix(1 0 0 1 50 50)"  >
<rect style="stroke: none; stroke-width: 1; stroke-dasharray: none; stroke-linecap: butt; stroke-dashoffset: 0; stroke-linejoin: miter; stroke-miterlimit: 4; fill: rgb(255,255,255); fill-opacity: 0; fill-rule: nonzero; opacity: 1;" vector-effect="non-scaling-stroke"  x="-50" y="-50" rx="0" ry="0" width="100" height="100" />
</g>
<g transform="matrix(12.26 0 0 12.26 540 540)"  >
<rect style="stroke: rgb(0,0,0); stroke-width: 0; stroke-dasharray: none; stroke-linecap: butt; stroke-dashoffset: 0; stroke-linejoin: miter; stroke-miterlimit: 4; fill: rgb(193,53,132); fill-rule: nonzero; opacity: 1;" vector-effect="non-scaling-stroke"  x="-33.085" y="-33.085" rx="0" ry="0" width="66.17" height="66.17" />
</g>
<g transform="matrix(1 0 0 1 540 540)"  >
<rect style="stroke: none; stroke-width: 1; stroke-dasharray: none; stroke-linecap: butt; stroke-dashoffset: 0; stroke-linejoin: miter; stroke-miterlimit: 4; fill: rgb(255,255,255); fill-rule: nonzero; opacity: 1; visibility: hidden;" vector-effect="non-scaling-stroke"  x="-540" y="-540" rx="0" ry="0" width="1080" height="1080" />
</g>
<g transform="matrix(NaN NaN NaN NaN 0 0)"  >
<g style=""   >
</g>
</g>
<g transform="matrix(NaN NaN NaN NaN 0 0)"  >
<g style=""   >
</g>
</g>
<g transform="matrix(1 0 0 1 540 540)"  >
<g style="" vector-effect="non-scaling-stroke"   >
		<g transform="matrix(33.33 0 0 33.33 0 0)"  >
<path style="stroke: none; stroke-width: 1; stroke-dasharray: none; stroke-linecap: butt; stroke-dashoffset: 0; stroke-linejoin: miter; stroke-miterlimit: 4; fill: rgb(255,255,255); fill-rule: evenodd; opacity: 1;" vector-effect="non-scaling-stroke"  transform=" translate(-12, -12)" d="M 12 18 C 15.3137 18 18 15.3137 18 12 C 18 8.68629 15.3137 6 12 6 C 8.68629 6 6 8.68629 6 12 C 6 15.3137 8.68629 18 12 18 Z M 12 16 C 14.2091 16 16 14.2091 16 12 C 16 9.79086 14.2091 8 12 8 C 9.79086 8 8 9.79086 8 12 C 8 14.2091 9.79086 16 12 16 Z" stroke-linecap="round" />
</g>
		<g transform="matrix(33.33 0 0 33.33 200 -200)"  >
<path style="stroke: none; stroke-width: 1; stroke-dasharray: none; stroke-linecap: butt; stroke-dashoffset: 0; stroke-linejoin: miter; stroke-miterlimit: 4; fill: rgb(255,255,255); fill-rule: nonzero; opacity: 1;" vector-effect="non-scaling-stroke"  transform=" translate(-18, -6)" d="M 18 5 C 17.4477 5 17 5.44772 17 6 C 17 6.55228 17.4477 7 18 7 C 18.5523 7 19 6.55228 19 6 C 19 5.44772 18.5523 5 18 5 Z" stroke-linecap="round" />
</g>
		<g transform="matrix(33.33 0 0 33.33 0 0)"  >
<path style="stroke: none; stroke-width: 1; stroke-dasharray: none; stroke-linecap: butt; stroke-dashoffset: 0; stroke-linejoin: miter; stroke-miterlimit: 4; fill: rgb(255,255,255); fill-rule: evenodd; opacity: 1;" vector-effect="non-scaling-stroke"  transform=" translate(-12, -12)" d="M 1.65396 4.27606 C 1 5.55953 1 7.23969 1 10.6 L 1 13.4 C 1 16.7603 1 18.4405 1.65396 19.7239 C 2.2292 20.8529 3.14708 21.7708 4.27606 22.346 C 5.55953 23 7.23969 23 10.6 23 L 13.4 23 C 16.7603 23 18.4405 23 19.7239 22.346 C 20.8529 21.7708 21.7708 20.8529 22.346 19.7239 C 23 18.4405 23 16.7603 23 13.4 L 23 10.6 C 23 7.23969 23 5.55953 22.346 4.27606 C 21.7708 3.14708 20.8529 2.2292 19.7239 1.65396 C 18.4405 1 16.7603 1 13.4 1 L 10.6 1 C 7.23969 1 5.55953 1 4.27606 1.65396 C 3.14708 2.2292 2.2292 3.14708 1.65396 4.27606 Z M 13.4 3 L 10.6 3 C 8.88684 3 7.72225 3.00156 6.82208 3.0751 C 5.94524 3.14674 5.49684 3.27659 5.18404 3.43597 C 4.43139 3.81947 3.81947 4.43139 3.43597 5.18404 C 3.27659 5.49684 3.14674 5.94524 3.0751 6.82208 C 3.00156 7.72225 3 8.88684 3 10.6 L 3 13.4 C 3 15.1132 3.00156 16.2777 3.0751 17.1779 C 3.14674 18.0548 3.27659 18.5032 3.43597 18.816 C 3.81947 19.5686 4.43139 20.1805 5.18404 20.564 C 5.49684 20.7234 5.94524 20.8533 6.82208 20.9249 C 7.72225 20.9984 8.88684 21 10.6 21 L 13.4 21 C 15.1132 21 16.2777 20.9984 17.1779 20.9249 C 18.0548 20.8533 18.5032 20.7234 18.816 20.564 C 19.5686 20.1805 20.1805 19.5686 20.564 18.816 C 20.7234 18.5032 20.8533 18.0548 20.9249 17.1779 C 20.9984 16.2777 21 15.1132 21 13.4 L 21 10.6 C 21 8.88684 20.9984 7.72225 20.9249 6.82208 C 20.8533 5.94524 20.7234 5.49684 20.564 5.18404 C 20.1805 4.43139 19.5686 3.81947 18.816 3.43597 C 18.5032 3.27659 18.0548 3.14674 17.1779 3.0751 C 16.2777 3.00156 15.1132 3 13.4 3 Z" stroke-linecap="round" />
</g>
</g>
</g>
</svg>