<?xml version="1.0" encoding="UTF-8" standalone="no" ?>
<!DOCTYPE svg PUBLIC "-//W3C//DTD SVG 1.1//EN" "http://www.w3.org/Graphics/SVG/1.1/DTD/svg11.dtd">
<svg xmlns="http://www.w3.org/2000/svg" xmlns:xlink="http://www.w3.org/1999/xlink" version="1.1" width="1080" height="1080" viewBox="0 0 1080 1080" xml:space="preserve">
<desc>Created with Fabric.js 5.2.4</desc>
<defs>
</defs>
<rect x="0" y="0" width="100%" height="100%" fill="transparent"></rect>
<g transform="matrix(1 0 0 1 540 540)" id="e9af0b1b-19d2-4157-83a6-eb4fca4b37c0"  >
<rect style="stroke: none; stroke-width: 1; stroke-dasharray: none; stroke-linecap: butt; stroke-dashoffset: 0; stroke-linejoin: miter; stroke-miterlimit: 4; fill: rgb(255,255,255); fill-rule: nonzero; opacity: 1; visibility: hidden;" vector-effect="non-scaling-stroke"  x="-540" y="-540" rx="0" ry="0" width="1080" height="1080" />
</g>
<g transform="matrix(1 0 0 1 540 540)" id="655944d4-1e0c-474c-b344-0e02aab4fae5"  >
</g>
<g transform="matrix(12.26 0 0 12.26 540 540)" id="d58d7638-0ade-455b-abc1-78e7364805c1"  >
<rect style="stroke: rgb(0,0,0); stroke-width: 0; stroke-dasharray: none; stroke-linecap: butt; stroke-dashoffset: 0; stroke-linejoin: miter; stroke-miterlimit: 4; fill: rgb(255,255,255); fill-rule: nonzero; opacity: 1;" vector-effect="non-scaling-stroke"  x="-33.0835" y="-33.0835" rx="0" ry="0" width="66.167" height="66.167" />
</g>
<g transform="matrix(45.01 0 0 45.01 540 540)" id="f2ae3f77-41df-4f01-aa4b-fafb0c69e7a0"  >
<path style="stroke: rgb(0,0,0); stroke-width: 0; stroke-dasharray: none; stroke-linecap: butt; stroke-dashoffset: 0; stroke-linejoin: miter; stroke-miterlimit: 4; fill: rgb(0,119,181); fill-rule: nonzero; opacity: 1;" vector-effect="non-scaling-stroke"  transform=" translate(-12, -12)" d="M 19 0 L 5 0 C 2.239 0 0 2.239 0 5 L 0 19 C 0 21.761 2.239 24 5 24 L 19 24 C 21.762 24 24 21.761 24 19 L 24 5 C 24 2.239 21.762 0 19 0 z M 8 19 L 5 19 L 5 8 L 8 8 L 8 19 z M 6.5 6.731999999999999 C 5.534 6.731999999999999 4.75 5.941999999999999 4.75 4.967999999999999 C 4.75 3.993999999999999 5.534 3.203999999999999 6.5 3.203999999999999 C 7.466 3.203999999999999 8.25 3.993999999999999 8.25 4.967999999999999 C 8.25 5.941999999999999 7.467 6.731999999999999 6.5 6.731999999999999 z M 20 19 L 17 19 L 17 13.396 C 17 10.028 13 10.283000000000001 13 13.396 L 13 19 L 10 19 L 10 8 L 13 8 L 13 9.765 C 14.396 7.179 20 6.988 20 12.241 L 20 19 z" stroke-linecap="round" />
</g>
</svg>