<?xml version="1.0" encoding="UTF-8" standalone="no" ?>
<!DOCTYPE svg PUBLIC "-//W3C//DTD SVG 1.1//EN" "http://www.w3.org/Graphics/SVG/1.1/DTD/svg11.dtd">
<svg xmlns="http://www.w3.org/2000/svg" xmlns:xlink="http://www.w3.org/1999/xlink" version="1.1" width="1080" height="1080" viewBox="0 0 1080 1080" xml:space="preserve">
<desc>Created with Fabric.js 5.2.4</desc>
<defs>
</defs>
<rect x="0" y="0" width="100%" height="100%" fill="transparent"></rect>
<g transform="matrix(1 0 0 1 540 540)" id="e9af0b1b-19d2-4157-83a6-eb4fca4b37c0"  >
<rect style="stroke: none; stroke-width: 1; stroke-dasharray: none; stroke-linecap: butt; stroke-dashoffset: 0; stroke-linejoin: miter; stroke-miterlimit: 4; fill: rgb(255,255,255); fill-rule: nonzero; opacity: 1; visibility: hidden;" vector-effect="non-scaling-stroke"  x="-540" y="-540" rx="0" ry="0" width="1080" height="1080" />
</g>
<g transform="matrix(1 0 0 1 540 540)" id="655944d4-1e0c-474c-b344-0e02aab4fae5"  >
</g>
<g transform="matrix(12.26 0 0 12.26 540.06 540.06)" id="d58d7638-0ade-455b-abc1-78e7364805c1"  >
<rect style="stroke: rgb(0,0,0); stroke-width: 0; stroke-dasharray: none; stroke-linecap: butt; stroke-dashoffset: 0; stroke-linejoin: miter; stroke-miterlimit: 4; fill: rgb(62,101,207); fill-rule: nonzero; opacity: 1;" vector-effect="non-scaling-stroke"  x="-33.085" y="-33.085" rx="0" ry="0" width="66.17" height="66.17" />
</g>
<g transform="matrix(45.01 0 0 45.01 539.97 539.97)"  >
<path style="stroke: rgb(0,0,0); stroke-width: 0; stroke-dasharray: none; stroke-linecap: butt; stroke-dashoffset: 0; stroke-linejoin: miter; stroke-miterlimit: 4; fill: rgb(62,101,207); fill-rule: nonzero; opacity: 1;" vector-effect="non-scaling-stroke"  transform=" translate(-12, -12)" d="M 19 0 L 5 0 C 2.239 0 0 2.239 0 5 L 0 19 C 0 21.761 2.239 24 5 24 L 19 24 C 21.762 24 24 21.761 24 19 L 24 5 C 24 2.239 21.762 0 19 0 z M 8 19 L 5 19 L 5 8 L 8 8 L 8 19 z M 6.5 6.731999999999999 C 5.534 6.731999999999999 4.75 5.941999999999999 4.75 4.967999999999999 C 4.75 3.993999999999999 5.534 3.203999999999999 6.5 3.203999999999999 C 7.466 3.203999999999999 8.25 3.993999999999999 8.25 4.967999999999999 C 8.25 5.941999999999999 7.467 6.731999999999999 6.5 6.731999999999999 z M 20 19 L 17 19 L 17 13.396 C 17 10.028 13 10.283000000000001 13 13.396 L 13 19 L 10 19 L 10 8 L 13 8 L 13 9.765 C 14.396 7.179 20 6.988 20 12.241 L 20 19 z" stroke-linecap="round" />
</g>
<g transform="matrix(31.25 0 0 31.25 540 540)"  >
<path style="stroke: rgb(0,0,0); stroke-width: 0; stroke-dasharray: none; stroke-linecap: butt; stroke-dashoffset: 0; stroke-linejoin: miter; stroke-miterlimit: 4; fill: rgb(255,255,255); fill-rule: nonzero; opacity: 1;" vector-effect="non-scaling-stroke"  transform=" translate(-12, -12)" d="M 20 4 C 21.6569 4 23 5.34315 23 7 L 23 17 C 23 18.6569 21.6569 20 20 20 L 4 20 C 2.34315 20 1 18.6569 1 17 L 1 7 C 1 5.34315 2.34315 4 4 4 L 20 4 Z M 19.2529 6 L 4.74718 6 L 11.3804 11.2367 C 11.7437 11.5236 12.2563 11.5236 12.6197 11.2367 L 19.2529 6 Z M 3 7.1688 L 3 17 C 3 17.5523 3.44772 18 4 18 L 20 18 C 20.5523 18 21 17.5523 21 17 L 21 7.16882 L 13.8589 12.8065 C 12.769 13.667 11.231 13.667 10.1411 12.8065 L 3 7.1688 Z" stroke-linecap="round" />
</g>
<g transform="matrix(NaN NaN NaN NaN 0 0)"  >
<g style=""   >
</g>
</g>
<g transform="matrix(NaN NaN NaN NaN 0 0)"  >
<g style=""   >
</g>
</g>
</svg>